{"title":"Regular Show S05E03 Bensons.Car 720p HDTV x264-W4F[mR12]","uid":8901326,"size":212784904,"categoryP":"video","categoryS":"hd___tv_shows","magnet":"?xt=urn:btih:6133ff95115301c6024b1fefba507e09696ce88f&amp;dn=Regular+Show+S05E03+Bensons.Car+720p+HDTV+x264-W4F%5BmR12%5D&amp;tr=udp%3A%2F%2Ftracker.openbittorrent.com%3A80&amp;tr=udp%3A%2F%2Fopen.demonii.com%3A1337&amp;tr=udp%3A%2F%2Ftracker.coppersurfer.tk%3A6969&amp;tr=udp%3A%2F%2Fexodus.desync.com%3A6969","seeders":1,"leechers":0,"uploader":"[mR12]","files":2,"time":1378772742,"description":"Regular Show S05E03 Bensons.Car 720p HDTV x264-W4F[mR12]\nimage\nRelease Date 2013.09.09\n\nAir Date 2013.09.09\n\nGenre Cartoon\n\nEPiSODE iNFO\nThe guys try to fix a broken window in BensonÎ“Ã‡Ã–s car\n\nGeneral\nFormat : Matroska\nFormat version : Version 4 / Version 2\nFile size : 203 MiB\nDuration : 10mn 59s\nOverall bit rate : 2 582 Kbps\n\nVideo\nID : 1\nFormat : AVC\nFormat/Info : Advanced Video Codec\nFormat profile : &lt;a class=&quot;__cf_email__&quot; href=&quot;/cdn-cgi/l/email-protection&quot; data-cfemail=&quot;5e163739361e126a706f&quot;&gt;[email&amp;#160;protected]&lt;/a&gt;&lt;script cf-hash='f9e31' type=&quot;text/javascript&quot;&gt;\n/* &lt;![CDATA[ */!function(){try{var t=&quot;currentScript&quot;in document?document.currentScript:function(){for(var t=document.getElementsByTagName(&quot;script&quot;),e=t.length;e--;)if(t[e].getAttribute(&quot;cf-hash&quot;))return t[e]}();if(t&amp;&amp;t.previousSibling){var e,r,n,i,c=t.previousSibling,a=c.getAttribute(&quot;data-cfemail&quot;);if(a){for(e=&quot;&quot;,r=parseInt(a.substr(0,2),16),n=2;a.length-n;n+=2)i=parseInt(a.substr(n,2),16)^r,e+=String.fromCharCode(i);e=document.createTextNode(e),c.parentNode.replaceChild(e,c)}}}catch(u){}}();/* ]]&gt; */&lt;/script&gt;\nFormat settings, CABAC : Yes\nFormat settings, ReFrames : 5 frames\nCodec ID : V_MPEG4/ISO/AVC\nDuration : 10mn 59s\nBit rate : 2 082 Kbps\nWidth : 1 280 pixels\nHeight : 720 pixels\nDisplay aspect ratio : 16:9\nFrame rate mode : Constant\nFrame rate : 23.976 fps\nChroma subsampling : 4:2:0\nBit depth : 8 bits\nScan type : Progressive\nBits/(Pixel*Frame) : 0.094\nStream size : 164 MiB (81%)\nLanguage : English\n\nAudio\nID : 2\nFormat : AC-3\nFormat/Info : Audio Coding 3\nMode extension : CM (complete main)\nFormat settings, Endianness : Big\nCodec ID : A_AC3\nDuration : 10mn 59s\nBit rate mode : Constant\nBit rate : 448 Kbps\nSampling rate : 48.0 KHz\nBit depth : 16 bits\nCompression mode : Lossy\nStream size : 35.2 MiB (17%)\nLanguage : English","torrent":{"xt":"urn:btih:6133ff95115301c6024b1fefba507e09696ce88f","amp;dn":"Regular+Show+S05E03+Bensons.Car+720p+HDTV+x264-W4F%5BmR12%5D","amp;tr":["udp%3A%2F%2Ftracker.openbittorrent.com%3A80","udp%3A%2F%2Fopen.demonii.com%3A1337","udp%3A%2F%2Ftracker.coppersurfer.tk%3A6969","udp%3A%2F%2Fexodus.desync.com%3A6969"],"infoHash":"6133ff95115301c6024b1fefba507e09696ce88f","infoHashBuffer":{"type":"Buffer","data":[97,51,255,149,17,83,1,198,2,75,31,239,186,80,126,9,105,108,232,143]},"announce":[],"urlList":[]}}